<svg xmlns="http://www.w3.org/2000/svg" width="53" height="53" viewBox="0 0 53 53"><defs><style>.a{fill:#828282;}</style></defs><path class="a" d="M46.738,1.928H11.4a8.833,8.833,0,0,0-8.832,8.834V46.094A8.833,8.833,0,0,0,11.4,54.928H29.071V31.741H22.446V25.116h6.625V20.147a8.281,8.281,0,0,1,8.281-8.281h8.281v6.625H37.352A1.656,1.656,0,0,0,35.7,20.147v4.969h9.109l-1.656,6.625H35.7V54.928H46.738a8.833,8.833,0,0,0,8.833-8.834V10.762a8.833,8.833,0,0,0-8.833-8.834Z" transform="translate(-2.571 -1.928)"/></svg>