<svg xmlns="http://www.w3.org/2000/svg" width="67.143" height="47.21" viewBox="0 0 67.143 47.21"><defs><style>.a{fill:gray;}</style></defs><path class="a" d="M66.789,11.887a8.436,8.436,0,0,0-5.936-5.975C55.617,4.5,34.621,4.5,34.621,4.5s-21,0-26.232,1.412a8.437,8.437,0,0,0-5.936,5.975c-1.4,5.27-1.4,16.266-1.4,16.266s0,11,1.4,16.266A8.311,8.311,0,0,0,8.389,50.3c5.236,1.412,26.232,1.412,26.232,1.412s21,0,26.232-1.412a8.311,8.311,0,0,0,5.936-5.879c1.4-5.27,1.4-16.266,1.4-16.266s0-11-1.4-16.266ZM27.754,38.136V18.169L45.3,28.153,27.754,38.136Z" transform="translate(-1.05 -4.5)"/></svg>