<svg xmlns="http://www.w3.org/2000/svg" width="51.714" height="51.714" viewBox="0 0 51.714 51.714"><defs><style>.a{fill:gray;}</style></defs><path class="a" d="M48.02,2.25H3.682A3.71,3.71,0,0,0,0,5.978V50.235a3.71,3.71,0,0,0,3.682,3.728H48.02a3.72,3.72,0,0,0,3.694-3.728V5.978A3.72,3.72,0,0,0,48.02,2.25ZM15.63,46.576H7.965V21.9h7.676v24.68ZM11.8,18.526a4.444,4.444,0,1,1,4.444-4.444A4.446,4.446,0,0,1,11.8,18.526Zm32.564,28.05H36.7V34.571c0-2.863-.058-6.545-3.982-6.545-3.994,0-4.606,3.117-4.606,6.337V46.576H20.443V21.9H27.8v3.371h.1a8.073,8.073,0,0,1,7.261-3.982c7.757,0,9.2,5.114,9.2,11.763Z" transform="translate(0 -2.25)"/></svg>