<svg xmlns="http://www.w3.org/2000/svg" width="54.335" height="54.323" viewBox="0 0 54.335 54.323"><defs><style>.a{fill:#828282;}</style></defs><path class="a" d="M27.168,15.472A13.928,13.928,0,1,0,41.1,29.4,13.906,13.906,0,0,0,27.168,15.472Zm0,22.983A9.055,9.055,0,1,1,36.223,29.4a9.071,9.071,0,0,1-9.055,9.055ZM44.915,14.9a3.249,3.249,0,1,1-3.249-3.249A3.241,3.241,0,0,1,44.915,14.9Zm9.225,3.3c-.206-4.352-1.2-8.206-4.388-11.382s-7.031-4.17-11.382-4.388c-4.485-.255-17.928-.255-22.413,0-4.34.206-8.194,1.2-11.382,4.376S.4,13.835.186,18.187c-.255,4.485-.255,17.928,0,22.413.206,4.352,1.2,8.206,4.388,11.382s7.031,4.17,11.382,4.388c4.485.255,17.928.255,22.413,0,4.352-.206,8.206-1.2,11.382-4.388s4.17-7.031,4.388-11.382c.255-4.485.255-17.916,0-22.4ZM48.345,45.412a9.167,9.167,0,0,1-5.164,5.164c-3.576,1.418-12.061,1.091-16.013,1.091s-12.449.315-16.013-1.091a9.167,9.167,0,0,1-5.164-5.164C4.574,41.836,4.9,33.351,4.9,29.4S4.586,16.95,5.992,13.387a9.167,9.167,0,0,1,5.164-5.164C14.732,6.8,23.217,7.132,27.168,7.132s12.449-.315,16.013,1.091a9.167,9.167,0,0,1,5.164,5.164c1.418,3.576,1.091,12.061,1.091,16.013S49.763,41.848,48.345,45.412Z" transform="translate(0.005 -2.238)"/></svg>