<svg xmlns="http://www.w3.org/2000/svg" viewBox="0 0 163.63 43.47"><defs><style>.cls-1,.cls-5{fill:#b1d249;}.cls-1,.cls-2,.cls-3{fill-rule:evenodd;}.cls-2{fill:#00985c;}.cls-3,.cls-4{fill:#fff;}.cls-6{fill:#005f55;}</style></defs><g id="Camada_2" data-name="Camada 2"><g id="Layer_1" data-name="Layer 1"><polygon class="cls-1" points="28.56 7.96 17.11 7.96 0 30.82 11.4 30.82 2.85 42.27 17.11 42.27 25.71 30.88 20.01 30.88 28.56 19.42 20.01 19.42 25.07 12.63 28.56 7.96"/><polygon class="cls-2" points="18.28 30.88 11.22 30.88 2.85 42.27 9.67 42.27 18.28 30.88"/><polygon class="cls-2" points="19.87 19.55 8.56 19.39 0 30.82 11.4 30.82 19.87 19.55"/><polygon class="cls-3" points="7.47 42.27 11.42 42.27 20.03 30.88 20.01 30.88 16.07 30.88 7.47 42.27"/><polygon class="cls-3" points="29.91 2.91 26.4 0 17.49 2.91 20.9 2.91 8.45 19.53 8.45 19.53 5.66 23.26 17.22 23.09 11.4 30.82 20.01 30.88 22.89 27.02 18.91 27.18 24.78 19.39 14.31 19.48 26.83 2.91 29.91 2.91"/><polygon class="cls-1" points="28.56 7.96 40.02 7.96 57.12 30.82 45.72 30.82 54.27 42.27 40.02 42.27 31.41 30.88 37.12 30.88 28.56 19.42 37.12 19.42 32.05 12.63 28.56 7.96"/><rect class="cls-4" x="64.52" y="3.83" width="0.75" height="39.64"/><path class="cls-4" d="M80.07,5.63V5.7l-1.29,4.81H78l-1.12-4-1.18,4H75L73.67,5.7V5.63h.67l1,3.92,1.16-3.92h.74l1.12,3.9,1-3.9Z"/><path class="cls-4" d="M80.16,8.8a1.63,1.63,0,0,1,1.72-1.86c1,0,1.64.65,1.64,1.81a1.63,1.63,0,0,1-1.69,1.84A1.59,1.59,0,0,1,80.16,8.8Zm2.71,0c0-.78-.37-1.26-1-1.26S80.8,8,80.8,8.78s.37,1.23,1,1.23S82.87,9.52,82.87,8.78Z"/><path class="cls-4" d="M86.15,7l-.09.6a1.82,1.82,0,0,0-.32,0,1.58,1.58,0,0,0-.88.26v2.69h-.65V7h.45l.11.32a1.44,1.44,0,0,1,1-.4A1.64,1.64,0,0,1,86.15,7Z"/><path class="cls-4" d="M89.57,7.07l-1.4,1.6,1.38,1.79v0h-.72L87.6,9h-.31v1.56h-.64V5.28h.64V8.4h.31L88.82,7h.75Z"/><path class="cls-4" d="M92.46,7.13l-.15.5a3.09,3.09,0,0,0-1-.17c-.49,0-.77.2-.77.49,0,.68,2,.28,2,1.57,0,.63-.5,1.07-1.43,1.07a3.41,3.41,0,0,1-1.26-.25l.18-.54a3.26,3.26,0,0,0,1.09.22c.5,0,.79-.18.79-.46,0-.7-2-.32-2-1.57,0-.63.56-1,1.38-1A3.57,3.57,0,0,1,92.46,7.13Z"/><path class="cls-4" d="M96.25,8.05v2.46h-.64V8.21c0-.43-.24-.66-.76-.66a1.92,1.92,0,0,0-.91.26v2.7H93.3V5.28h.64V7.21A2.24,2.24,0,0,1,95,6.94C95.82,6.94,96.25,7.35,96.25,8.05Z"/><path class="cls-4" d="M96.88,8.8a1.64,1.64,0,0,1,1.73-1.86c1,0,1.64.65,1.64,1.81a1.63,1.63,0,0,1-1.69,1.84A1.59,1.59,0,0,1,96.88,8.8Zm2.72,0c0-.78-.37-1.26-1-1.26S97.53,8,97.53,8.78s.37,1.23,1,1.23S99.6,9.52,99.6,8.78Z"/><path class="cls-4" d="M104.12,8.72a1.69,1.69,0,0,1-1.7,1.87,1.83,1.83,0,0,1-.84-.18v1.84h-.64V7h.44l.09.25a1.61,1.61,0,0,1,1-.33A1.59,1.59,0,0,1,104.12,8.72Zm-.67,0c0-.77-.41-1.23-1.08-1.23a1.3,1.3,0,0,0-.79.27V9.85a1.59,1.59,0,0,0,.75.18A1.13,1.13,0,0,0,103.45,8.75Z"/><path class="cls-4" d="M109.24,5.28v5.23h-.44l-.08-.25a1.57,1.57,0,0,1-1,.33,1.61,1.61,0,0,1-1.65-1.78,1.69,1.69,0,0,1,1.7-1.87,1.86,1.86,0,0,1,.84.17V5.28ZM107.82,10a1.33,1.33,0,0,0,.78-.26V7.68a1.45,1.45,0,0,0-.74-.18,1.14,1.14,0,0,0-1.13,1.28A1.08,1.08,0,0,0,107.82,10Z"/><path class="cls-4" d="M112.69,8.09v2.42h-.4l-.1-.23a1.52,1.52,0,0,1-1,.31c-.79,0-1.26-.45-1.26-1.07s.45-1.06,1.33-1.06h.76V8.21c0-.46-.3-.7-.89-.7a3.72,3.72,0,0,0-1,.15l-.11-.53a4.5,4.5,0,0,1,1.24-.19C112.29,6.94,112.69,7.39,112.69,8.09Zm-1.37,2a1.43,1.43,0,0,0,.73-.2V9h-.7c-.52,0-.74.2-.74.54S110.9,10.07,111.32,10.07Z"/><path class="cls-4" d="M118.87,8.65a1.75,1.75,0,0,1-1.9,1.94,1.78,1.78,0,0,1-1.92-1.94v-3h.65v3A1.25,1.25,0,0,0,117,10a1.23,1.23,0,0,0,1.26-1.38v-3h.65Z"/><path class="cls-4" d="M122.73,8.07v2.44h-.64V8.23c0-.45-.24-.69-.76-.69a2,2,0,0,0-.91.25v2.72h-.64V7h.44l.09.27a2.18,2.18,0,0,1,1.2-.35A1.07,1.07,0,0,1,122.73,8.07Z"/><path class="cls-4" d="M124.44,5.84a.45.45,0,1,1-.45-.43A.42.42,0,0,1,124.44,5.84Zm-.13,4.67h-.64V7h.64Z"/><path class="cls-4" d="M130.41,8v2.47h-.63V8.24c0-.44-.28-.69-.78-.69a1.86,1.86,0,0,0-.87.21,1.36,1.36,0,0,1,0,.29v2.46h-.63V8.24c0-.45-.23-.69-.77-.69a1.75,1.75,0,0,0-.84.22v2.74h-.64V7h.44l.09.27A2.12,2.12,0,0,1,127,6.94a1.2,1.2,0,0,1,1,.39,2.16,2.16,0,0,1,1.25-.39A1.08,1.08,0,0,1,130.41,8Z"/><path class="cls-4" d="M134.19,10.26a2.58,2.58,0,0,1-1.31.33,1.69,1.69,0,0,1-1.83-1.83,1.65,1.65,0,0,1,1.67-1.82,1.32,1.32,0,0,1,1.45,1.43,2.43,2.43,0,0,1-.06.51h-2.42A1.14,1.14,0,0,0,133,10a2.35,2.35,0,0,0,1-.24Zm-2.47-1.9h1.83V8.3a.8.8,0,0,0-.85-.84A1,1,0,0,0,131.72,8.36Z"/><path class="cls-4" d="M137.84,5.28v5.23h-.44l-.09-.25a1.55,1.55,0,0,1-1,.33,1.6,1.6,0,0,1-1.64-1.78,1.69,1.69,0,0,1,1.69-1.87,1.93,1.93,0,0,1,.85.17V5.28ZM136.41,10a1.36,1.36,0,0,0,.79-.26V7.68a1.5,1.5,0,0,0-.75-.18,1.14,1.14,0,0,0-1.13,1.28A1.09,1.09,0,0,0,136.41,10Z"/><path class="cls-4" d="M146.22,10.45v.06h-.66l-.76-3.92-1.24,3.92h-.75l-1.24-3.93-.76,3.93h-.66v-.06l1-4.82h.8l1.28,4,1.27-4h.8Z"/><path class="cls-4" d="M149.59,8.09v2.42h-.4l-.1-.23a1.52,1.52,0,0,1-1,.31c-.79,0-1.26-.45-1.26-1.07s.45-1.06,1.34-1.06H149V8.21c0-.46-.3-.7-.9-.7a3.65,3.65,0,0,0-1,.15L147,7.13a4.5,4.5,0,0,1,1.24-.19C149.19,6.94,149.59,7.39,149.59,8.09Zm-1.37,2a1.49,1.49,0,0,0,.74-.2V9h-.71c-.51,0-.74.2-.74.54S147.8,10.07,148.22,10.07Z"/><path class="cls-4" d="M153,7.08l-.11.57a2.48,2.48,0,0,0-.76-.13,1.19,1.19,0,0,0-1.28,1.28,1.12,1.12,0,0,0,1.28,1.2,3.33,3.33,0,0,0,.8-.13l.11.55a3.44,3.44,0,0,1-1.05.17,1.65,1.65,0,0,1-1.8-1.78,1.73,1.73,0,0,1,1.87-1.87A3.24,3.24,0,0,1,153,7.08Z"/><path class="cls-4" d="M156.57,10.26a2.58,2.58,0,0,1-1.31.33,1.69,1.69,0,0,1-1.83-1.83,1.65,1.65,0,0,1,1.67-1.82,1.32,1.32,0,0,1,1.45,1.43,3.34,3.34,0,0,1-.06.51h-2.42a1.14,1.14,0,0,0,1.3,1.13,2.35,2.35,0,0,0,1-.24Zm-2.47-1.9h1.83V8.3a.8.8,0,0,0-.85-.84A1,1,0,0,0,154.1,8.36Z"/><path class="cls-4" d="M158.08,5.84a.45.45,0,0,1-.89,0,.45.45,0,0,1,.89,0ZM158,10.51h-.65V7H158Z"/><path class="cls-4" d="M158.71,8.8a1.64,1.64,0,0,1,1.72-1.86,1.58,1.58,0,0,1,1.65,1.81,1.64,1.64,0,0,1-1.7,1.84A1.59,1.59,0,0,1,158.71,8.8Zm2.72,0c0-.78-.37-1.26-1-1.26s-1.07.48-1.07,1.26.37,1.23,1,1.23S161.43,9.52,161.43,8.78Zm.3-3.29-1.35,1.13L160,6.25,161.25,5Z"/><path class="cls-4" d="M82.42,20.6v.13h-1.7l-.61-4.14-1,4.14h-2l-1-4.14-.58,4.14H73.81V20.6l1.1-6.34H77l1.11,4.44,1.07-4.44h2.11Z"/><path class="cls-4" d="M84.81,15.72v1H87v1.46H84.81v1.06h2.7v1.46H83.13V14.26h4.38v1.46Z"/><path class="cls-4" d="M93.53,20.6v.13H91.69l-1-2.07H90v2.07H88.31V14.26h2.84a2,2,0,0,1,2.24,2.13,2.11,2.11,0,0,1-1.07,1.94ZM90,17.2h.77c.54,0,.86-.27.86-.75s-.31-.76-.84-.76H90Z"/><path class="cls-4" d="M99,14.37l-.27,1.39a5.51,5.51,0,0,0-1.12-.14,1.79,1.79,0,0,0-1.89,2,1.71,1.71,0,0,0,1.94,1.78,4.83,4.83,0,0,0,1.15-.14L99,20.58a5.05,5.05,0,0,1-1.73.28,3,3,0,0,1-3.37-3.27,3.27,3.27,0,0,1,3.42-3.46A5.39,5.39,0,0,1,99,14.37Z"/><path class="cls-4" d="M105.3,20.6v.13h-1.74l-.28-1h-2l-.28,1H99.26V20.6l2-6.34h2Zm-2.41-2.28-.61-2.17-.62,2.17Z"/><path class="cls-4" d="M111.48,17.47a3,3,0,0,1-3.22,3.26h-2.4V14.26h2.4A3,3,0,0,1,111.48,17.47Zm-1.75,0c0-1.13-.56-1.75-1.57-1.75h-.58v3.55h.58C109.17,19.27,109.73,18.63,109.73,17.47Z"/><path class="cls-4" d="M111.91,17.52a3.15,3.15,0,0,1,3.28-3.39c2,0,3.15,1.22,3.15,3.33a3.14,3.14,0,0,1-3.26,3.4C113.07,20.86,111.91,19.63,111.91,17.52Zm4.72,0c0-1.18-.6-1.9-1.52-1.9s-1.49.72-1.49,1.91.61,1.92,1.49,1.92S116.63,18.68,116.63,17.48Z"/><path class="cls-4" d="M126.43,17.47a3,3,0,0,1-3.22,3.26h-2.39V14.26h2.39A3,3,0,0,1,126.43,17.47Zm-1.75,0c0-1.13-.55-1.75-1.57-1.75h-.58v3.55h.58C124.13,19.27,124.68,18.63,124.68,17.47Z"/><path class="cls-4" d="M128.86,15.72v1H131v1.46h-2.15v1.06h2.71v1.46h-4.39V14.26h4.39v1.46Z"/><path class="cls-4" d="M138.55,14.42l-.33,1.4a6.44,6.44,0,0,0-1.57-.24c-.63,0-1,.22-1,.54s.32.44.73.58c1.07.39,2.31.71,2.31,2.12s-1,2-2.58,2a6.22,6.22,0,0,1-2.22-.42l.39-1.39a5.41,5.41,0,0,0,1.77.36c.56,0,.84-.2.84-.5s-.44-.44-1.18-.7c-.95-.34-1.78-.81-1.78-2s1-2.11,2.7-2.11A6.54,6.54,0,0,1,138.55,14.42Z"/><path class="cls-4" d="M145,20.6v.13h-1.74l-.27-1h-2l-.28,1H139V20.6l2-6.34h2Zm-2.41-2.28L142,16.15l-.61,2.17Z"/><path class="cls-4" d="M150.86,18.28a2.77,2.77,0,0,1-5.52,0v-4H147v3.88c0,.74.4,1.27,1.09,1.27s1.08-.53,1.08-1.27V14.26h1.68Zm-.8-6-1.82,1.59-.83-.78,1.6-1.84Z"/><path class="cls-4" d="M157.46,17.47a3,3,0,0,1-3.22,3.26h-2.39V14.26h2.39A3,3,0,0,1,157.46,17.47Zm-1.75,0c0-1.13-.55-1.75-1.57-1.75h-.58v3.55h.58C155.16,19.27,155.71,18.63,155.71,17.47Z"/><path class="cls-4" d="M159.88,15.72v1H162v1.46h-2.16v1.06h2.71v1.46h-4.38V14.26h4.38v1.46Z"/><path class="cls-4" d="M76.05,24.86V26h2.44v1.65H76.05v1.21h3.06v1.65h-5V23.21h5v1.65Z"/><path class="cls-4" d="M83.9,23.21v7.32H82V23.21Z"/><path class="cls-4" d="M91.4,23.21v7.32H89.64L87,26.59v3.94H85.09V23.21h1.74l2.64,4v-4Z"/><path class="cls-4" d="M98.82,23.21v.15l-2.25,7.17h-2.3L92,23.36v-.15h2l1.46,4.91,1.32-4.91Z"/><path class="cls-4" d="M101.33,24.86V26h2.44v1.65h-2.44v1.21h3.07v1.65h-5V23.21h5v1.65Z"/><path class="cls-4" d="M110.33,23.39,110,25a7,7,0,0,0-1.76-.26c-.71,0-1.11.24-1.11.6s.36.5.83.66c1.2.44,2.61.8,2.61,2.39s-1.1,2.31-2.93,2.31a6.83,6.83,0,0,1-2.5-.48l.44-1.56a6.06,6.06,0,0,0,2,.4c.64,0,1-.23,1-.56s-.5-.5-1.34-.8c-1.06-.38-2-.92-2-2.22s1.09-2.38,3-2.38A7.5,7.5,0,0,1,110.33,23.39Z"/><path class="cls-4" d="M117.08,24.86h-2.14v5.67H113V24.86h-2.14V23.21h6.22Z"/><path class="cls-4" d="M119.7,23.21v7.32h-1.93V23.21Z"/><path class="cls-4" d="M130.32,30.38v.15H128.4l-.69-4.68-1.15,4.68h-2.21l-1.17-4.68-.66,4.68h-1.93v-.15l1.24-7.17h2.4l1.25,5,1.21-5h2.39Z"/><path class="cls-4" d="M133,24.86V26h2.44v1.65H133v1.21h3.07v1.65h-5V23.21h5v1.65Z"/><path class="cls-4" d="M143.29,23.21v7.32h-1.76l-2.62-3.94v3.94H137V23.21h1.75l2.63,4v-4Z"/><path class="cls-4" d="M150.19,24.86h-2.14v5.67h-1.94V24.86H144V23.21h6.22Z"/><path class="cls-4" d="M150.39,26.89a3.54,3.54,0,0,1,3.7-3.82c2.26,0,3.56,1.38,3.56,3.76A3.54,3.54,0,0,1,154,30.67C151.69,30.67,150.39,29.27,150.39,26.89Zm5.33,0c0-1.33-.68-2.14-1.72-2.14s-1.68.81-1.68,2.15S153,29,154,29,155.72,28.21,155.72,26.85Z"/><path class="cls-4" d="M163.44,23.39,163.06,25a7,7,0,0,0-1.76-.26c-.72,0-1.11.24-1.11.6s.35.5.82.66c1.21.44,2.62.8,2.62,2.39s-1.1,2.31-2.93,2.31a6.79,6.79,0,0,1-2.5-.48l.44-1.56a6,6,0,0,0,2,.4c.63,0,1-.23,1-.56s-.5-.5-1.34-.8c-1.07-.38-2-.92-2-2.22s1.1-2.38,3.06-2.38A7.5,7.5,0,0,1,163.44,23.39Z"/><rect class="cls-5" x="74.07" y="33.5" width="88.18" height="9.22"/><path class="cls-6" d="M81.1,36.45l-.16,1.14h1.35l-.07.46H80.87l-.16,1.13h1.78l-.07.46H80.16L80.68,36h2.25l-.07.46Z"/><path class="cls-6" d="M85.56,37.08l-1.2,1.29.78,1.23v0h-.52L84,38.71l-.8.93h-.59v0l1.17-1.25L83,37.08v0h.52l.57,1L85,37h.61Z"/><path class="cls-6" d="M87.74,37.08l-.14.44a1.77,1.77,0,0,0-.56-.09,1,1,0,0,0-1,1,.72.72,0,0,0,.79.77,1.69,1.69,0,0,0,.57-.09l.09.42a2.69,2.69,0,0,1-.76.13,1.11,1.11,0,0,1-1.19-1.19A1.5,1.5,0,0,1,87.08,37,2,2,0,0,1,87.74,37.08Z"/><path class="cls-6" d="M88,39.11a2.91,2.91,0,0,1,.06-.48l.41-2.9H89l-.42,2.9c0,.13,0,.27,0,.36a.25.25,0,0,0,.29.27.71.71,0,0,0,.21,0l0,.4a1.11,1.11,0,0,1-.41.08A.56.56,0,0,1,88,39.11Z"/><path class="cls-6" d="M91.87,37l-.36,2.61h-.33l0-.18a1.51,1.51,0,0,1-.84.25.74.74,0,0,1-.84-.74q0-.12,0-.39L89.72,37h.48L90,38.5a3.1,3.1,0,0,0,0,.34c0,.28.17.43.51.43a1.49,1.49,0,0,0,.65-.17L91.4,37Z"/><path class="cls-6" d="M94.23,37.11l-.11.38a2.4,2.4,0,0,0-.71-.12c-.36,0-.61.15-.61.37,0,.46,1.28.34,1.28,1.11,0,.54-.44.86-1.11.86a2.37,2.37,0,0,1-.92-.19l.13-.41a2.29,2.29,0,0,0,.79.17c.38,0,.64-.13.64-.38,0-.42-1.29-.33-1.29-1.11,0-.49.44-.82,1.1-.82A2.56,2.56,0,0,1,94.23,37.11Z"/><path class="cls-6" d="M95,39.64h-.48L94.92,37h.48Zm.59-3.51a.34.34,0,0,1-.38.35.28.28,0,0,1-.29-.3.35.35,0,0,1,.37-.35A.28.28,0,0,1,95.62,36.13Z"/><path class="cls-6" d="M98.29,37v0L97,39.64h-.53l-.55-2.56v0h.48l.4,2,1-2Z"/><path class="cls-6" d="M98.33,38.55A1.49,1.49,0,0,1,99.81,37a1,1,0,0,1,1.08,1.15,1.47,1.47,0,0,1-1.45,1.59A1.06,1.06,0,0,1,98.33,38.55Zm2.07-.39c0-.49-.23-.76-.63-.76a1,1,0,0,0-1,1.13c0,.5.27.74.64.74A1,1,0,0,0,100.4,38.16Z"/><path class="cls-6" d="M104.89,38.16a1.48,1.48,0,0,1-1.54,1.55,2.09,2.09,0,0,1-.55-.08L102.61,41h-.48l.56-3.92H103l0,.2a1.12,1.12,0,0,1,.73-.26A1.08,1.08,0,0,1,104.89,38.16Zm-.49,0a.68.68,0,0,0-.69-.77,1.11,1.11,0,0,0-.63.21l-.22,1.57a1.23,1.23,0,0,0,.51.11A1,1,0,0,0,104.4,38.17Z"/><path class="cls-6" d="M107.79,37.2l-.35,2.44h-.33l0-.2a1.14,1.14,0,0,1-.74.27,1.07,1.07,0,0,1-1.09-1.19A1.47,1.47,0,0,1,106.77,37,2.41,2.41,0,0,1,107.79,37.2Zm-1.38,2.08a1.16,1.16,0,0,0,.64-.21l.22-1.57a1.27,1.27,0,0,0-.52-.11,1,1,0,0,0-1,1.12A.68.68,0,0,0,106.41,39.28Z"/><path class="cls-6" d="M109.92,37l-.11.45-.23,0a1.46,1.46,0,0,0-.7.19l-.28,2h-.48l.37-2.61h.33l.05.24a1.24,1.24,0,0,1,.8-.3A.82.82,0,0,1,109.92,37Z"/><path class="cls-6" d="M112.4,37.2l-.35,2.44h-.33l0-.2a1.14,1.14,0,0,1-.74.27,1.07,1.07,0,0,1-1.09-1.19A1.47,1.47,0,0,1,111.39,37,2.4,2.4,0,0,1,112.4,37.2ZM111,39.28a1.14,1.14,0,0,0,.64-.21l.22-1.57a1.26,1.26,0,0,0-.51-.11,1,1,0,0,0-1,1.12A.68.68,0,0,0,111,39.28Z"/><path class="cls-6" d="M116.61,36.09l-.11.44a2.67,2.67,0,0,0-.86-.14c-.63,0-1,.23-1,.59s.29.44.69.58c.67.24,1.06.5,1.06,1,0,.69-.59,1.12-1.49,1.12a3,3,0,0,1-1.1-.22l.13-.44a3.07,3.07,0,0,0,1,.2c.57,0,.92-.24.92-.62s-.23-.45-.79-.64-.94-.45-.94-1,.59-1.07,1.53-1.07A2.82,2.82,0,0,1,116.61,36.09Z"/><path class="cls-6" d="M116.86,38.55A1.49,1.49,0,0,1,118.34,37a1,1,0,0,1,1.07,1.15A1.47,1.47,0,0,1,118,39.71,1.05,1.05,0,0,1,116.86,38.55Zm2.07-.39c0-.49-.23-.76-.64-.76a1,1,0,0,0-1,1.13c0,.5.28.74.65.74A1,1,0,0,0,118.93,38.16Zm.42-2.27-1,.85-.28-.28.93-.93Z"/><path class="cls-6" d="M122,37.08l-.14.44a1.82,1.82,0,0,0-.56-.09,1,1,0,0,0-1.05,1,.72.72,0,0,0,.79.77,1.71,1.71,0,0,0,.58-.09l.09.42a2.7,2.7,0,0,1-.77.13,1.11,1.11,0,0,1-1.18-1.19A1.5,1.5,0,0,1,121.33,37,2.08,2.08,0,0,1,122,37.08Z"/><path class="cls-6" d="M122.66,39.64h-.47l.37-2.61H123Zm.59-3.51a.34.34,0,0,1-.37.35.28.28,0,0,1-.3-.3.35.35,0,0,1,.37-.35A.28.28,0,0,1,123.25,36.13Z"/><path class="cls-6" d="M123.41,38.55A1.49,1.49,0,0,1,124.89,37,1,1,0,0,1,126,38.12a1.47,1.47,0,0,1-1.45,1.59A1.05,1.05,0,0,1,123.41,38.55Zm2.07-.39c0-.49-.23-.76-.64-.76a1,1,0,0,0-1,1.13c0,.5.28.74.65.74A1,1,0,0,0,125.48,38.16Z"/><path class="cls-6" d="M128.36,37.11l-.11.38a2.39,2.39,0,0,0-.7-.12c-.36,0-.61.15-.61.37,0,.46,1.27.34,1.27,1.11,0,.54-.44.86-1.11.86a2.4,2.4,0,0,1-.92-.19l.13-.41a2.29,2.29,0,0,0,.79.17c.38,0,.64-.13.64-.38,0-.42-1.29-.33-1.29-1.11,0-.49.44-.82,1.11-.82A2.54,2.54,0,0,1,128.36,37.11Z"/><path class="cls-6" d="M132.75,36.07l-.12.43a2.29,2.29,0,0,0-.72-.11,1.56,1.56,0,0,0-1.57,1.66,1.13,1.13,0,0,0,1.23,1.2,2.29,2.29,0,0,0,.7-.12l.08.42a2.52,2.52,0,0,1-.92.16,1.56,1.56,0,0,1-1.6-1.63,2,2,0,0,1,2-2.15A2.52,2.52,0,0,1,132.75,36.07Z"/><path class="cls-6" d="M132.71,38.55A1.49,1.49,0,0,1,134.19,37a1,1,0,0,1,1.07,1.15,1.47,1.47,0,0,1-1.45,1.59A1.05,1.05,0,0,1,132.71,38.55Zm2.07-.39c0-.49-.23-.76-.64-.76a1,1,0,0,0-.95,1.13c0,.5.28.74.65.74A1,1,0,0,0,134.78,38.16Z"/><path class="cls-6" d="M135.6,38.55A1.49,1.49,0,0,1,137.08,37a1,1,0,0,1,1.08,1.15,1.47,1.47,0,0,1-1.45,1.59A1.06,1.06,0,0,1,135.6,38.55Zm2.07-.39c0-.49-.23-.76-.63-.76a1,1,0,0,0-.95,1.13c0,.5.27.74.64.74A1,1,0,0,0,137.67,38.16Z"/><path class="cls-6" d="M141.06,38.16a1.48,1.48,0,0,1-1.54,1.55,2.16,2.16,0,0,1-.56-.08L138.78,41h-.48l.56-3.92h.33l0,.2A1.12,1.12,0,0,1,140,37,1.08,1.08,0,0,1,141.06,38.16Zm-.49,0a.68.68,0,0,0-.69-.77,1.11,1.11,0,0,0-.63.21L139,39.18a1.23,1.23,0,0,0,.51.11A1,1,0,0,0,140.57,38.17Z"/><path class="cls-6" d="M143.44,39.13l.14.38a2.22,2.22,0,0,1-1,.2,1.11,1.11,0,0,1-1.22-1.14,1.51,1.51,0,0,1,1.5-1.6c.57,0,.91.3.91.76s-.4.92-1.08.92a2.19,2.19,0,0,1-.85-.18v.07c0,.48.32.74.84.74A1.77,1.77,0,0,0,143.44,39.13Zm-1.51-1a2.08,2.08,0,0,0,.74.15c.42,0,.69-.2.69-.48s-.19-.41-.53-.41A1,1,0,0,0,141.93,38.1Z"/><path class="cls-6" d="M145.87,37l-.11.45-.23,0a1.46,1.46,0,0,0-.7.19l-.28,2h-.48l.37-2.61h.33l0,.24a1.24,1.24,0,0,1,.8-.3A.82.82,0,0,1,145.87,37Z"/><path class="cls-6" d="M148.35,37.2,148,39.64h-.33l0-.2a1.14,1.14,0,0,1-.74.27,1.07,1.07,0,0,1-1.09-1.19A1.47,1.47,0,0,1,147.34,37,2.4,2.4,0,0,1,148.35,37.2ZM147,39.28a1.16,1.16,0,0,0,.64-.21l.22-1.57a1.26,1.26,0,0,0-.51-.11,1,1,0,0,0-1,1.12A.68.68,0,0,0,147,39.28Z"/><path class="cls-6" d="M151.46,35.73l-.56,3.91h-.31l0-.21a1.16,1.16,0,0,1-.75.28,1.08,1.08,0,0,1-1.1-1.19A1.47,1.47,0,0,1,150.24,37a2.2,2.2,0,0,1,.56.07l.18-1.31Zm-1.57,3.54a1.09,1.09,0,0,0,.62-.2l.23-1.58a1.5,1.5,0,0,0-.52-.1,1,1,0,0,0-1,1.12A.68.68,0,0,0,149.89,39.27Z"/><path class="cls-6" d="M151.61,38.55A1.49,1.49,0,0,1,153.09,37a1,1,0,0,1,1.08,1.15,1.47,1.47,0,0,1-1.45,1.59A1.05,1.05,0,0,1,151.61,38.55Zm2.07-.39c0-.49-.23-.76-.64-.76a1,1,0,0,0-.95,1.13c0,.5.28.74.65.74A1,1,0,0,0,153.68,38.16Z"/><path class="cls-6" d="M156.56,37.11l-.11.38a2.34,2.34,0,0,0-.7-.12c-.36,0-.61.15-.61.37,0,.46,1.28.34,1.28,1.11,0,.54-.44.86-1.12.86a2.44,2.44,0,0,1-.92-.19l.13-.41a2.3,2.3,0,0,0,.8.17c.37,0,.63-.13.63-.38,0-.42-1.28-.33-1.28-1.11,0-.49.43-.82,1.1-.82A2.54,2.54,0,0,1,156.56,37.11Z"/></g></g></svg>