<svg xmlns="http://www.w3.org/2000/svg" width="503.011" height="121.769" viewBox="0 0 503.011 121.769">
  <g id="Logo_Unimed_Maceió" data-name="Logo Unimed Maceió" transform="translate(-342.989 -649.231)">
    <g id="Grupo_7" data-name="Grupo 7" transform="translate(526.088 661.212)">
      <text id="Workshop_para_Cooperados" data-name="Workshop para Cooperados" transform="translate(-2.099 26.788)" fill="#9cc544" font-size="26" font-family="UnimedSans-2020-Regular, 'Unimed Sans - \32 020'"><tspan x="0" y="0">Workshop para Cooperados</tspan></text>
      <text id="MERCADO_DE_SAÚDE" data-name="MERCADO DE SAÚDE" transform="translate(-0.088 61.788)" fill="#fff" font-size="32" font-family="UnimedSans-2020-Bold, 'Unimed Sans - \32 020'" font-weight="700"><tspan x="0" y="0">MERCADO DE SAÚDE</tspan></text>
      <text id="E_INVESTIMENTOS" data-name="E INVESTIMENTOS" transform="translate(-0.088 99.788)" fill="#fff" font-size="36" font-family="UnimedSans-2020-Bold, 'Unimed Sans - \32 020'" font-weight="700"><tspan x="0" y="0">E INVESTIMENTOS</tspan></text>
    </g>
    <g id="Logo_Workshop" data-name="Logo Workshop" transform="translate(342.989 649.231)">
      <path id="Caminho_37" data-name="Caminho 37" d="M718.053,358.176H687.3l-45.934,61.374h30.615L649.016,450.3H687.3l23.107-30.608H695.08l22.972-30.765H695.08L708.693,370.7Z" transform="translate(-641.366 -336.793)" fill="#b7c300"/>
      <path id="Caminho_38" data-name="Caminho 38" d="M689.991,416.023H671.035L648.56,446.631h18.325Z" transform="translate(-640.91 -333.125)" fill="#047d36"/>
      <path id="Caminho_39" data-name="Caminho 39" d="M694.721,387.455l-30.381-.426-22.974,30.683h30.615Z" transform="translate(-641.366 -334.963)" fill="#047d36"/>
      <path id="Caminho_40" data-name="Caminho 40" d="M660.227,446.631h10.608l23.107-30.608h-10.62Z" transform="translate(-640.17 -333.125)" fill="#fff"/>
      <path id="Caminho_41" data-name="Caminho 41" d="M720.773,345.871l-9.427-7.8-23.923,7.8h9.147L663.159,390.5h0l-7.5,10.017,31.038-.468-15.618,20.766,23.1.15,7.733-10.357-10.672.441,15.75-20.917-28.116.235,33.616-44.5Z" transform="translate(-640.46 -338.067)" fill="#fff"/>
      <path id="Caminho_42" data-name="Caminho 42" d="M713.377,357.888H739.75l39.574,61.619H752.952l19.961,30.81H739.75l-19.584-30.81h13.2L713.377,388.7h19.99Z" transform="translate(-636.801 -336.811)" fill="#b7c300"/>
    </g>
    <line id="Linha_6" data-name="Linha 6" y2="94.275" transform="translate(504.91 668.727)" fill="none" stroke="#fff" stroke-linecap="round" stroke-width="2"/>
  </g>
</svg>
